<svg xmlns="http://www.w3.org/2000/svg" xmlns:xlink="http://www.w3.org/1999/xlink" width="500" zoomAndPan="magnify" viewBox="0 0 375 374.999991" height="500" preserveAspectRatio="xMidYMid meet" version="1.0"><defs><clipPath id="d0b9a961af"><path d="M 167 67.371094 L 184 67.371094 L 184 109 L 167 109 Z M 167 67.371094 " clip-rule="nonzero"/></clipPath><clipPath id="52b05c83f6"><path d="M 41.222656 78 L 169 78 L 169 166 L 41.222656 166 Z M 41.222656 78 " clip-rule="nonzero"/></clipPath><clipPath id="f4912a6726"><path d="M 178.398438 243 L 333.558594 243 L 333.558594 307.363281 L 178.398438 307.363281 Z M 178.398438 243 " clip-rule="nonzero"/></clipPath><clipPath id="7a7c9fbc37"><path d="M 253.34375 225.316406 L 271.691406 225.316406 L 271.691406 235.457031 L 253.34375 235.457031 Z M 253.34375 225.316406 " clip-rule="nonzero"/></clipPath><clipPath id="a945f6e4d4"><path d="M 270.5625 235.21875 L 253.496094 227.746094 C 253.519531 226.953125 253.535156 226.15625 253.53125 225.359375 L 271.589844 233.089844 C 271.285156 233.808594 270.945312 234.523438 270.5625 235.21875 " clip-rule="nonzero"/></clipPath></defs><path fill="#fdd324" d="M 182.367188 106.683594 C 132.050781 80.171875 97.1875 102.003906 70.796875 144.738281 C 49.257812 179.613281 50.085938 220.8125 70.269531 246.585938 C 75.652344 253.464844 79.453125 261.484375 80.691406 270.128906 C 81.398438 275.0625 83.769531 279.15625 87.6875 281.296875 C 91.566406 283.417969 96.246094 283.238281 100.75 281.230469 C 110.15625 277.035156 120.460938 275.351562 130.757812 275.183594 C 154.128906 274.800781 177.871094 260.789062 198.367188 223.378906 C 222.5 179.332031 218.980469 125.976562 182.367188 106.683594 " fill-opacity="1" fill-rule="nonzero"/><path fill="#febf12" d="M 81.269531 162.160156 C 83.578125 141.375 91.433594 122.746094 102.929688 107.988281 C 90.902344 116.671875 80.300781 129.347656 70.796875 144.738281 C 49.257812 179.613281 50.085938 220.8125 70.269531 246.585938 C 75.652344 253.464844 79.453125 261.484375 80.691406 270.128906 C 81.398438 275.0625 83.769531 279.15625 87.6875 281.296875 C 91.566406 283.417969 96.246094 283.238281 100.75 281.230469 C 110.15625 277.035156 120.460938 275.351562 130.757812 275.183594 C 138.984375 275.050781 147.25 273.21875 155.410156 269.28125 C 108.449219 263.457031 75.316406 215.746094 81.269531 162.160156 " fill-opacity="1" fill-rule="nonzero"/><path fill="#ffffff" d="M 196.832031 175.566406 C 195.515625 177.375 193.851562 179.011719 191.773438 179.839844 C 189.695312 180.664062 187.144531 180.550781 185.410156 179.136719 C 183.925781 177.933594 183.238281 176.023438 182.707031 174.191406 C 180.214844 165.585938 179.679688 156.417969 181.160156 147.585938 C 183.285156 134.902344 195.828125 135.625 200.25 146.597656 C 203.574219 154.832031 201.953125 168.535156 196.832031 175.566406 " fill-opacity="1" fill-rule="nonzero"/><path fill="#febf12" d="M 60.867188 165.324219 C 74.695312 166.4375 93.242188 166.492188 109.238281 161.625 C 139.246094 152.496094 145.972656 128.757812 161.816406 114.363281 C 167.105469 109.554688 170.546875 105.464844 172.789062 102.140625 C 127.574219 83.089844 95.480469 104.769531 70.796875 144.738281 C 66.671875 151.417969 63.371094 158.332031 60.867188 165.324219 " fill-opacity="1" fill-rule="nonzero"/><g clip-path="url(#d0b9a961af)"><path fill="#8e6d62" d="M 170.667969 108.796875 C 170.667969 108.796875 185.15625 87.761719 183.011719 67.367188 L 171.480469 69.261719 C 171.480469 69.261719 180.875 87.285156 167.140625 108.347656 L 170.667969 108.796875 " fill-opacity="1" fill-rule="nonzero"/></g><g clip-path="url(#52b05c83f6)"><path fill="#5d9e4d" d="M 41.386719 165.511719 C 41.386719 165.511719 57.972656 114.28125 88.074219 95.019531 C 118.179688 75.757812 168.609375 78.996094 168.609375 78.996094 C 168.609375 78.996094 170.253906 86.867188 156.257812 103.066406 C 142.257812 119.261719 138.4375 143.632812 109.746094 156.296875 C 81.050781 168.964844 41.386719 165.511719 41.386719 165.511719 " fill-opacity="1" fill-rule="nonzero"/></g><path fill="#52914c" d="M 165.730469 79.976562 C 154.328125 83.242188 143.414062 88.105469 132.65625 93.089844 C 103.824219 106.460938 80.789062 126.546875 60.179688 146.535156 C 56.738281 149.875 49.890625 156.328125 48.167969 160.800781 C 65.320312 142.128906 86.703125 125.226562 107.714844 111.019531 C 128.734375 96.808594 148.773438 86.285156 173.71875 81.605469 C 175.820312 81.210938 178.992188 79.660156 175.527344 78.230469 C 172.644531 77.039062 168.476562 79.191406 165.730469 79.976562 " fill-opacity="1" fill-rule="nonzero"/><path fill="#52914c" d="M 78.699219 159.027344 C 77.0625 155.519531 77.75 149.136719 77.851562 145.335938 C 77.980469 140.582031 78.933594 136.019531 79.449219 131.335938 C 75.21875 132.265625 76.066406 139.734375 75.96875 142.914062 C 75.804688 148.394531 76.355469 154.003906 78.699219 159.027344 " fill-opacity="1" fill-rule="nonzero"/><path fill="#52914c" d="M 97.050781 155.011719 C 93.597656 142.679688 93.492188 129.433594 96.742188 117.050781 C 96.78125 116.898438 94.039062 117.839844 93.671875 118.910156 C 93.304688 119.980469 93.585938 121.707031 93.492188 122.847656 C 93.1875 126.523438 92.929688 130.203125 92.929688 133.890625 C 92.921875 141.109375 93.851562 148.457031 97.050781 155.011719 " fill-opacity="1" fill-rule="nonzero"/><path fill="#52914c" d="M 107.703125 139.726562 C 108.355469 142.574219 109.191406 145.429688 110.769531 147.890625 C 105.976562 135.164062 107.097656 121.015625 109.414062 107.617188 C 104.925781 107.738281 105.796875 119.144531 105.78125 122.207031 C 105.75 128.09375 106.390625 133.988281 107.703125 139.726562 " fill-opacity="1" fill-rule="nonzero"/><path fill="#52914c" d="M 124.644531 136.644531 C 119.609375 125.429688 120.339844 112.527344 122.183594 100.375 C 117.378906 99.179688 118.597656 114.53125 118.882812 117.421875 C 119.578125 124.324219 121.832031 130.378906 124.644531 136.644531 " fill-opacity="1" fill-rule="nonzero"/><path fill="#52914c" d="M 133.136719 109.082031 C 133.5625 114.804688 134.609375 120.675781 137.785156 125.457031 C 133.515625 115.132812 133.253906 103.214844 137.074219 92.71875 C 137.050781 92.785156 134.796875 93.390625 134.390625 94.105469 C 133.675781 95.355469 133.535156 97.335938 133.332031 98.742188 C 132.832031 102.164062 132.882812 105.644531 133.136719 109.082031 " fill-opacity="1" fill-rule="nonzero"/><path fill="#52914c" d="M 68.882812 132.226562 C 66.132812 131.746094 63.425781 130.621094 61.484375 128.621094 C 64.292969 131.082031 68.203125 132.234375 71.898438 131.683594 C 73.4375 131.457031 74.917969 130.953125 76.390625 130.453125 C 77.402344 130.109375 78.417969 129.761719 79.429688 129.417969 C 80.488281 130.613281 76.820312 132.429688 75.910156 132.542969 C 73.675781 132.828125 71.089844 132.613281 68.882812 132.226562 " fill-opacity="1" fill-rule="nonzero"/><path fill="#52914c" d="M 70.738281 117.304688 C 78.273438 119.390625 86.273438 117.660156 93.898438 115.925781 C 95.371094 115.589844 96.847656 115.253906 98.324219 114.917969 C 97.789062 115.039062 96.523438 116.8125 95.929688 117.210938 C 95.210938 117.6875 94.445312 118.085938 93.609375 118.304688 C 91.445312 118.859375 88.980469 118.964844 86.761719 119.085938 C 81.371094 119.375 75.929688 118.78125 70.738281 117.304688 " fill-opacity="1" fill-rule="nonzero"/><path fill="#52914c" d="M 88.476562 105.902344 C 86.835938 105.253906 85.128906 104.390625 84.332031 102.820312 C 85.871094 104.148438 87.84375 104.855469 89.808594 105.390625 C 95.167969 106.855469 100.824219 107.234375 106.332031 106.5 C 107.847656 106.296875 109.40625 106.011719 110.898438 106.375 C 110.066406 106.171875 107.375 108.085938 106.316406 108.367188 C 104.605469 108.824219 102.675781 108.683594 100.925781 108.597656 C 96.667969 108.375 92.441406 107.46875 88.476562 105.902344 " fill-opacity="1" fill-rule="nonzero"/><path fill="#52914c" d="M 110.816406 97.824219 C 107.273438 95.824219 104.550781 92.722656 103.25 89.195312 C 106.570312 95.128906 114.707031 98.613281 122.058594 97.253906 C 123.542969 96.976562 125.015625 96.527344 126.527344 96.59375 C 127.140625 96.617188 127.886719 96.851562 127.957031 97.390625 C 128.011719 97.839844 127.554688 98.203125 127.132812 98.460938 C 124.472656 100.085938 122.636719 100.507812 119.550781 100.332031 C 116.464844 100.15625 113.425781 99.292969 110.816406 97.824219 " fill-opacity="1" fill-rule="nonzero"/><path fill="#52914c" d="M 127.871094 90.046875 C 125.863281 88.257812 124.632812 85.621094 124.550781 82.933594 C 125.25 84.5 125.957031 86.085938 126.964844 87.476562 C 127.96875 88.871094 129.3125 90.082031 130.9375 90.636719 C 133.445312 91.488281 136.183594 90.691406 138.710938 89.894531 C 140.394531 89.359375 142.078125 88.828125 143.761719 88.296875 C 143.042969 89.707031 141.492188 90.476562 139.984375 90.96875 C 137.949219 91.625 135.886719 92.886719 133.933594 92.542969 C 131.648438 92.140625 129.664062 91.640625 127.871094 90.046875 " fill-opacity="1" fill-rule="nonzero"/><g clip-path="url(#f4912a6726)"><path fill="#5d9e4d" d="M 333.558594 278.355469 C 333.558594 278.355469 289.613281 309.726562 253.625 307.21875 C 217.636719 304.710938 178.429688 271.886719 178.429688 271.886719 C 178.429688 271.886719 181.761719 264.550781 202.796875 259.878906 C 223.828125 255.207031 241.410156 237.847656 272.332031 244.828125 C 303.253906 251.804688 333.558594 278.355469 333.558594 278.355469 " fill-opacity="1" fill-rule="nonzero"/></g><path fill="#52914c" d="M 181.363281 272.820312 C 192.597656 277.015625 204.386719 279.636719 216.121094 282.0625 C 247.574219 288.558594 278.289062 286.164062 306.964844 282.394531 C 311.753906 281.765625 321.171875 280.664062 325.234375 278.089844 C 300.15625 282.871094 272.679688 283.6875 247.109375 282.550781 C 221.527344 281.414062 198.933594 277.890625 175.8125 266.71875 C 173.863281 265.777344 170.355469 265.128906 172.335938 268.359375 C 173.976562 271.046875 178.652344 271.808594 181.363281 272.820312 " fill-opacity="1" fill-rule="nonzero"/><path fill="#52914c" d="M 299.277344 261.226562 C 298.527344 265.035156 294.175781 269.769531 291.839844 272.773438 C 288.910156 276.53125 285.425781 279.636719 282.222656 283.105469 C 286.222656 284.890625 289.964844 278.363281 291.9375 275.851562 C 295.324219 271.535156 298.203125 266.683594 299.277344 261.226562 " fill-opacity="1" fill-rule="nonzero"/><path fill="#52914c" d="M 281.921875 253.46875 C 277.417969 265.480469 269.640625 276.226562 259.636719 284.265625 C 259.515625 284.359375 262.3125 285.246094 263.246094 284.601562 C 264.179688 283.960938 264.976562 282.398438 265.730469 281.535156 C 268.160156 278.753906 270.554688 275.941406 272.746094 272.96875 C 277.039062 267.152344 280.640625 260.671875 281.921875 253.46875 " fill-opacity="1" fill-rule="nonzero"/><path fill="#52914c" d="M 264.160156 259.410156 C 265.320312 256.722656 266.332031 253.917969 266.503906 250.992188 C 262.859375 264.121094 253.546875 274.859375 243.703125 284.273438 C 247.433594 286.867188 253.496094 277.148438 255.328125 274.6875 C 258.851562 269.960938 261.824219 264.824219 264.160156 259.410156 " fill-opacity="1" fill-rule="nonzero"/><path fill="#52914c" d="M 248.515625 251.746094 C 245.964844 263.804688 237.707031 273.769531 228.988281 282.464844 C 232.195312 286.308594 240.320312 273.199219 241.800781 270.695312 C 245.332031 264.714844 247.089844 258.480469 248.515625 251.746094 " fill-opacity="1" fill-rule="nonzero"/><path fill="#52914c" d="M 225.222656 268.878906 C 228.273438 264.011719 230.90625 258.652344 231.15625 252.894531 C 228.507812 263.773438 221.644531 273.539062 212.296875 279.714844 C 212.355469 279.675781 214.554688 280.539062 215.308594 280.207031 C 216.632812 279.625 217.925781 278.109375 218.925781 277.101562 C 221.363281 274.640625 223.386719 271.804688 225.222656 268.878906 " fill-opacity="1" fill-rule="nonzero"/><path fill="#52914c" d="M 291.371094 288.71875 C 293.328125 290.753906 294.867188 293.285156 295.261719 296.0625 C 294.433594 292.390625 291.929688 289.121094 288.589844 287.347656 C 287.199219 286.609375 285.691406 286.128906 284.195312 285.648438 C 283.164062 285.320312 282.132812 284.992188 281.101562 284.664062 C 280.945312 283.066406 285.015625 283.800781 285.824219 284.25 C 287.816406 285.363281 289.800781 287.085938 291.371094 288.71875 " fill-opacity="1" fill-rule="nonzero"/><path fill="#52914c" d="M 281 299.636719 C 276.09375 293.441406 268.535156 290.042969 261.289062 286.875 C 259.886719 286.261719 258.484375 285.648438 257.082031 285.035156 C 257.589844 285.257812 259.675781 284.582031 260.394531 284.621094 C 261.265625 284.664062 262.125 284.804688 262.9375 285.128906 C 265.03125 285.980469 267.101562 287.371094 268.984375 288.605469 C 273.554688 291.597656 277.640625 295.335938 281 299.636719 " fill-opacity="1" fill-rule="nonzero"/><path fill="#52914c" d="M 259.761719 298.207031 C 260.710938 299.710938 261.589844 301.429688 261.308594 303.171875 C 260.84375 301.179688 259.65625 299.425781 258.371094 297.816406 C 254.871094 293.425781 250.484375 289.734375 245.554688 287.023438 C 244.195312 286.277344 242.753906 285.570312 241.753906 284.386719 C 242.3125 285.050781 245.644531 285.121094 246.675781 285.527344 C 248.34375 286.183594 249.832031 287.453125 251.207031 288.574219 C 254.550781 291.300781 257.457031 294.566406 259.761719 298.207031 " fill-opacity="1" fill-rule="nonzero"/><path fill="#52914c" d="M 236.742188 291.335938 C 238.445312 295.066406 238.824219 299.199219 237.792969 302.828125 C 238.605469 296.050781 234.039062 288.363281 227.234375 285.054688 C 225.863281 284.386719 224.394531 283.871094 223.199219 282.914062 C 222.714844 282.523438 222.242188 281.886719 222.507812 281.410156 C 222.730469 281.015625 223.316406 281 223.8125 281.042969 C 226.949219 281.324219 228.695312 282.082031 231.109375 284.074219 C 233.523438 286.070312 235.488281 288.585938 236.742188 291.335938 " fill-opacity="1" fill-rule="nonzero"/><path fill="#52914c" d="M 218.214844 287.382812 C 218.792969 290.03125 218.230469 292.894531 216.699219 295.109375 C 217.0625 293.425781 217.425781 291.726562 217.429688 290 C 217.4375 288.273438 217.0625 286.492188 216.0625 285.070312 C 214.523438 282.878906 211.820312 281.882812 209.285156 281.015625 C 207.59375 280.433594 205.90625 279.851562 204.214844 279.273438 C 205.640625 278.566406 207.363281 278.875 208.882812 279.382812 C 210.933594 280.074219 213.363281 280.289062 214.753906 281.742188 C 216.378906 283.433594 217.699219 285.023438 218.214844 287.382812 " fill-opacity="1" fill-rule="nonzero"/><path fill="#febf12" d="M 198.03125 294.617188 C 152.574219 283.4375 124.515625 236.503906 135.363281 189.792969 C 146.207031 143.082031 191.847656 114.277344 237.304688 125.457031 C 282.761719 136.640625 310.820312 183.570312 299.972656 230.285156 C 289.128906 276.996094 243.484375 305.796875 198.03125 294.617188 " fill-opacity="1" fill-rule="nonzero"/><path fill="#fff4c5" d="M 199.664062 287.578125 C 157.992188 277.324219 132.269531 234.300781 142.210938 191.476562 C 152.15625 148.652344 194 122.25 235.671875 132.5 C 277.34375 142.75 303.066406 185.773438 293.121094 228.597656 C 283.179688 271.421875 241.335938 297.828125 199.664062 287.578125 " fill-opacity="1" fill-rule="nonzero"/><path fill="#ffdd47" d="M 220.050781 213.105469 C 219.761719 213.644531 219.4375 214.140625 219.085938 214.582031 L 249.003906 261.710938 C 251.21875 265.207031 258.585938 267.230469 261.054688 265.023438 C 268.003906 258.824219 273.90625 251.117188 278.253906 242.160156 C 279.0625 240.5 277.128906 238.089844 273.820312 236.644531 L 220.050781 213.105469 " fill-opacity="1" fill-rule="nonzero"/><path fill="#ffdd47" d="M 220.691406 204.332031 C 221.164062 205.25 221.429688 206.398438 221.4375 207.671875 L 281.773438 195.96875 C 283.835938 195.566406 284.875 194.378906 284.558594 192.824219 C 282.851562 184.46875 279.753906 176.546875 275.449219 169.453125 C 272.910156 165.269531 263.984375 162.835938 261.15625 165.546875 L 220.691406 204.332031 " fill-opacity="1" fill-rule="nonzero"/><path fill="#ffdd47" d="M 221.316406 209.304688 C 221.21875 209.941406 221.074219 210.589844 220.859375 211.242188 C 220.84375 211.277344 220.832031 211.3125 220.816406 211.351562 L 272.253906 233.375 C 276.714844 235.285156 281.371094 234.921875 282.144531 232.574219 L 282.160156 232.53125 C 284.851562 224.375 286.113281 216.085938 286.097656 207.976562 C 286.089844 204.410156 278.789062 200.457031 273.652344 201.25 L 221.316406 209.304688 " fill-opacity="1" fill-rule="nonzero"/><path fill="#ffdd47" d="M 226.277344 281.566406 C 233.53125 280.492188 240.566406 278.160156 247.117188 274.714844 C 250.253906 273.0625 250.871094 270.03125 248.859375 266.695312 L 218.046875 215.675781 C 217.476562 216.171875 216.871094 216.539062 216.257812 216.757812 C 215.894531 229.40625 215.039062 259.8125 214.679688 275.273438 C 214.605469 278.59375 221.4375 282.28125 226.277344 281.566406 " fill-opacity="1" fill-rule="nonzero"/><path fill="#ffdd47" d="M 214.433594 216.9375 C 214.269531 216.90625 214.109375 216.863281 213.949219 216.808594 C 213.390625 216.609375 212.917969 216.257812 212.523438 215.792969 L 171.519531 251.457031 C 167.738281 254.746094 168.75 260.144531 174.238281 265.242188 C 180.5 271.0625 187.917969 275.679688 196.304688 278.660156 L 196.441406 278.707031 C 203.492188 281.203125 209.972656 279.96875 210.25 276.078125 L 214.433594 216.9375 " fill-opacity="1" fill-rule="nonzero"/><path fill="#ffdd47" d="M 211.300781 210.054688 C 211.394531 209.386719 211.546875 208.699219 211.773438 208.015625 C 211.902344 207.625 212.050781 207.253906 212.210938 206.898438 L 181.96875 171.761719 C 177.785156 166.894531 167.523438 164.875 165.085938 168.449219 C 161.191406 174.175781 157.996094 180.585938 155.6875 187.589844 C 155.289062 188.796875 154.921875 190.007812 154.585938 191.21875 C 153.738281 194.285156 158.597656 198.433594 164.566406 199.75 L 211.300781 210.054688 " fill-opacity="1" fill-rule="nonzero"/><path fill="#ffdd47" d="M 217.078125 202.320312 C 217.625 202.230469 218.167969 202.261719 218.683594 202.449219 C 219.167969 202.617188 219.589844 202.90625 219.957031 203.28125 L 262.863281 157.914062 C 264.050781 156.65625 263.488281 154.683594 261.375 152.898438 C 255.609375 148.007812 248.953125 144.09375 241.542969 141.464844 C 235.304688 139.246094 228.953125 138.085938 222.660156 137.890625 C 218.210938 137.753906 215.34375 139.433594 215.417969 142.121094 L 217.078125 202.320312 " fill-opacity="1" fill-rule="nonzero"/><path fill="#ffdd47" d="M 211.652344 214.277344 C 211.320312 213.375 211.164062 212.308594 211.203125 211.164062 L 163.027344 201.722656 C 156.964844 200.539062 152.3125 202.097656 152.03125 205.40625 C 150.90625 218.488281 153.160156 231.332031 158.21875 242.671875 C 159.847656 246.324219 167.769531 248.847656 170.589844 246.625 L 211.652344 214.277344 " fill-opacity="1" fill-rule="nonzero"/><path fill="#ffdd47" d="M 213.300781 204.996094 C 214.007812 204.023438 214.832031 203.265625 215.691406 202.800781 L 211.3125 144.949219 C 211.113281 142.324219 205.476562 139.671875 202.230469 140.660156 C 194.195312 143.117188 186.597656 147.140625 179.84375 152.515625 C 176.472656 155.203125 176.566406 159.503906 180.15625 163.945312 L 213.300781 204.996094 " fill-opacity="1" fill-rule="nonzero"/><g clip-path="url(#7a7c9fbc37)"><g clip-path="url(#a945f6e4d4)"><path fill="#fff7d7" d="M 253.496094 235.21875 L 271.589844 235.21875 L 271.589844 225.359375 L 253.496094 225.359375 Z M 253.496094 235.21875 " fill-opacity="1" fill-rule="nonzero"/></g></g><path fill="#ffe77f" d="M 259.707031 243.304688 C 259.050781 243.304688 258.359375 243.207031 257.632812 242.972656 C 253.664062 241.6875 253.148438 238.859375 253.144531 237.140625 C 253.140625 233.964844 253.398438 230.867188 253.496094 227.746094 L 270.5625 235.21875 C 269.160156 237.777344 267.183594 240.117188 264.257812 241.851562 C 263.234375 242.460938 261.640625 243.304688 259.707031 243.304688 " fill-opacity="1" fill-rule="nonzero"/><path fill="#fff7d7" d="M 249.0625 205.03125 C 248.671875 204.214844 248.230469 203.394531 247.730469 202.570312 L 276.996094 196.894531 C 277.097656 198.382812 277.144531 199.863281 277.144531 201.34375 C 276.4375 201.214844 275.730469 201.148438 275.042969 201.148438 C 274.570312 201.148438 274.101562 201.179688 273.652344 201.25 L 249.0625 205.03125 M 235.207031 190.421875 C 234.558594 190.035156 233.886719 189.65625 233.1875 189.289062 L 258.941406 162.058594 C 260.136719 162.96875 261.253906 163.894531 262.289062 164.835938 C 261.847656 165.015625 261.464844 165.25 261.15625 165.546875 L 235.207031 190.421875 M 216.597656 184.847656 C 215.84375 184.820312 215.089844 184.796875 214.324219 184.765625 L 211.695312 149.992188 C 212.949219 149.734375 214.253906 149.523438 215.617188 149.375 L 216.597656 184.847656 " fill-opacity="1" fill-rule="nonzero"/><path fill="#ffe77f" d="M 247.730469 202.570312 C 246.84375 201.113281 245.765625 199.644531 244.4375 198.171875 C 241.792969 195.246094 238.910156 192.648438 235.207031 190.421875 L 261.15625 165.546875 C 261.464844 165.25 261.847656 165.015625 262.289062 164.835938 C 265.867188 168.09375 268.464844 171.535156 269.878906 174.96875 C 270.925781 177.511719 275.828125 188.222656 276.3125 191.070312 C 276.640625 193.019531 276.863281 194.964844 276.996094 196.894531 L 247.730469 202.570312 " fill-opacity="1" fill-rule="nonzero"/><path fill="#ffe77f" d="M 271.589844 233.089844 L 253.53125 225.359375 C 253.527344 222.628906 253.320312 219.855469 252.648438 216.964844 C 251.722656 213.003906 250.976562 209.039062 249.0625 205.03125 L 273.652344 201.25 C 274.101562 201.179688 274.570312 201.148438 275.042969 201.148438 C 275.730469 201.148438 276.4375 201.214844 277.144531 201.34375 C 277.140625 209.898438 275.535156 218.253906 273.660156 226.339844 C 273.152344 228.515625 272.539062 230.84375 271.589844 233.089844 " fill-opacity="1" fill-rule="nonzero"/><path fill="#ffe77f" d="M 233.1875 189.289062 C 231.011719 188.152344 228.566406 187.128906 225.753906 186.21875 C 222.402344 185.132812 219.503906 184.953125 216.597656 184.847656 L 215.617188 149.375 C 216.792969 149.242188 218.007812 149.15625 219.277344 149.125 C 219.699219 149.113281 220.113281 149.109375 220.535156 149.109375 C 233.785156 149.109375 248.417969 154.390625 258.015625 161.371094 C 258.328125 161.597656 258.636719 161.828125 258.941406 162.058594 L 233.1875 189.289062 " fill-opacity="1" fill-rule="nonzero"/><path fill="#ffe77f" d="M 214.324219 184.765625 C 212.558594 184.6875 210.742188 184.558594 208.78125 184.195312 C 200.195312 182.597656 192.558594 177.628906 189.667969 172.996094 C 187.765625 169.945312 185.710938 159.339844 201.832031 153.046875 C 204.882812 151.859375 208.082031 150.734375 211.695312 149.992188 L 214.324219 184.765625 " fill-opacity="1" fill-rule="nonzero"/><path fill="#ffffff" d="M 227.992188 251.433594 C 227.992188 251.433594 225.902344 271.71875 234.976562 271.988281 C 244.046875 272.253906 227.992188 251.433594 227.992188 251.433594 " fill-opacity="1" fill-rule="nonzero"/><path fill="#ffffff" d="M 196.261719 247.640625 C 196.261719 247.640625 180.058594 251.125 180.53125 257.75 C 181.003906 264.371094 196.261719 247.640625 196.261719 247.640625 " fill-opacity="1" fill-rule="nonzero"/><path fill="#ffffff" d="M 186.441406 188.382812 C 186.441406 188.382812 179.679688 173.265625 173.292969 175.097656 C 166.90625 176.929688 186.441406 188.382812 186.441406 188.382812 " fill-opacity="1" fill-rule="nonzero"/></svg>