<svg xmlns="http://www.w3.org/2000/svg" xmlns:xlink="http://www.w3.org/1999/xlink" width="500" zoomAndPan="magnify" viewBox="0 0 375 374.999991" height="500" preserveAspectRatio="xMidYMid meet" version="1.0"><path fill="#d82a27" d="M 214.003906 337.066406 C 207.589844 337.066406 201.738281 335.535156 196.769531 334.238281 C 189.601562 332.378906 184.929688 332.378906 177.742188 334.238281 C 167.292969 336.9375 152.976562 340.710938 137.707031 329.214844 C 121.40625 316.96875 107.488281 298.042969 98.679688 284.328125 C 85.691406 264.152344 75.402344 241.125 66.335938 211.902344 C 55.90625 178.425781 61.644531 133.949219 92.777344 113.707031 C 114.285156 99.726562 134.53125 101.761719 149.765625 105.148438 C 167.304688 108.984375 176.683594 109.058594 181.484375 108.457031 C 187.761719 87.824219 173.238281 58.152344 162.34375 52.832031 C 158.113281 50.773438 156.355469 45.671875 158.429688 41.445312 C 160.511719 37.234375 165.617188 35.472656 169.828125 37.535156 C 189.300781 47.046875 208.984375 90.175781 195.566406 119.285156 C 194.605469 121.359375 192.847656 122.96875 190.683594 123.742188 C 181.546875 127 166.964844 126.339844 146.097656 121.78125 C 127.832031 117.734375 115.058594 119.558594 102.082031 127.992188 C 81.207031 141.558594 72.835938 175.449219 82.621094 206.855469 C 91.222656 234.566406 100.878906 256.253906 113.023438 275.125 C 124.410156 292.863281 136.808594 307.222656 147.964844 315.597656 C 156.640625 322.144531 164.441406 320.089844 173.425781 317.761719 C 182.398438 315.414062 192.148438 315.414062 201.082031 317.761719 C 210.050781 320.109375 217.800781 322.125 226.464844 315.597656 C 237.640625 307.246094 250.050781 292.863281 261.433594 275.125 C 273.5625 256.300781 283.234375 234.601562 291.863281 206.855469 C 300.605469 178.785156 295.207031 150.507812 278.125 134.828125 C 264.582031 122.429688 247.707031 122.566406 226.542969 135.269531 C 210.929688 144.65625 192.359375 155.859375 165.652344 150.730469 C 161.019531 149.855469 157.988281 145.390625 158.871094 140.773438 C 159.746094 136.148438 164.308594 133.117188 168.832031 133.992188 C 189.15625 137.867188 203.328125 129.328125 217.058594 121.089844 C 252.757812 99.640625 276.1875 109.941406 289.652344 122.277344 C 311.910156 142.699219 319 177.042969 308.148438 211.902344 C 299.042969 241.160156 288.769531 264.171875 275.777344 284.328125 C 266.976562 298.054688 253.046875 316.988281 236.722656 329.214844 C 228.753906 335.238281 221.03125 337.066406 214.003906 337.066406 " fill-opacity="1" fill-rule="evenodd"/><path fill="#1f1a17" d="M 120.953125 268.914062 C 120.976562 268.960938 120.953125 268.960938 120.9375 268.914062 " fill-opacity="1" fill-rule="evenodd"/><path fill="#1f1a17" d="M 120.898438 268.882812 C 120.914062 268.914062 120.914062 268.914062 120.9375 268.960938 L 120.9375 268.914062 C 120.914062 268.914062 120.914062 268.914062 120.898438 268.882812 " fill-opacity="1" fill-rule="evenodd"/><path fill="#d82a27" d="M 187.265625 302.652344 L 187.410156 302.652344 C 191.824219 302.699219 201.464844 305.535156 208.863281 306.734375 C 212.359375 307.332031 216.140625 307.179688 219.886719 304.382812 L 219.960938 304.308594 L 219.945312 304.265625 C 221.515625 303.109375 222.941406 301.949219 224.199219 300.859375 L 224.160156 300.828125 C 225.449219 299.675781 226.96875 298.25 228.628906 296.597656 C 236.566406 288.636719 244.316406 278.605469 251 268.175781 C 257.125 258.636719 262.34375 248.644531 266.820312 238.289062 L 266.890625 238.253906 C 271.402344 227.859375 275.300781 216.960938 278.785156 205.703125 L 278.785156 205.636719 C 280.40625 200.472656 281.457031 194.933594 281.910156 189.363281 C 266.949219 200.4375 247.761719 210.976562 214.820312 203.34375 C 192.417969 198.132812 134.867188 144.773438 93.183594 194.488281 C 93.757812 198.296875 94.601562 202.039062 95.707031 205.636719 L 95.707031 205.703125 C 99.1875 216.960938 103.085938 227.859375 107.597656 238.257812 C 112.011719 248.382812 117.171875 258.300781 123.316406 267.871094 C 123.261719 267.839844 123.164062 267.761719 123.066406 267.609375 L 123.316406 267.949219 L 123.339844 267.949219 C 123.386719 268.023438 123.445312 268.101562 123.480469 268.175781 L 123.609375 268.363281 C 124.992188 270.449219 126.378906 272.550781 127.714844 274.484375 C 128.914062 276.214844 130.371094 278.226562 132.015625 280.445312 L 131.984375 280.476562 C 139.222656 290.167969 147.027344 298.695312 154.59375 304.382812 C 159.984375 308.417969 166.628906 306.699219 172.449219 305.167969 C 177.394531 303.894531 182.070312 302.652344 187.265625 302.652344 " fill-opacity="1" fill-rule="evenodd"/><path fill="#d82a27" d="M 230.121094 160.191406 C 240.550781 160.191406 249.019531 168.65625 249.019531 179.101562 C 249.019531 189.492188 240.550781 197.957031 230.121094 197.957031 C 219.691406 197.957031 211.195312 189.492188 211.195312 179.101562 C 211.195312 168.65625 219.691406 160.191406 230.121094 160.191406 " fill-opacity="1" fill-rule="evenodd"/><path fill="#84c141" d="M 205.324219 83.554688 C 201.972656 49.398438 241.699219 33.960938 274.679688 44.035156 C 255.585938 55.574219 261.914062 75.753906 237.96875 84.113281 C 226.195312 88.242188 212.15625 88.320312 205.324219 83.554688 " fill-opacity="1" fill-rule="evenodd"/><path fill="#d82a27" d="M 260.789062 150.429688 C 266.0625 150.429688 270.324219 154.707031 270.324219 159.925781 C 270.324219 165.203125 266.0625 169.484375 260.789062 169.484375 C 255.585938 169.484375 251.300781 165.203125 251.300781 159.925781 C 251.300781 154.707031 255.585938 150.429688 260.789062 150.429688 " fill-opacity="1" fill-rule="evenodd"/></svg>