<svg xmlns="http://www.w3.org/2000/svg" xmlns:xlink="http://www.w3.org/1999/xlink" width="500" zoomAndPan="magnify" viewBox="0 0 375 374.999991" height="500" preserveAspectRatio="xMidYMid meet" version="1.0"><defs><clipPath id="9c75f32348"><path d="M 14.496094 69.640625 L 360.246094 69.640625 L 360.246094 305.140625 L 14.496094 305.140625 Z M 14.496094 69.640625 " clip-rule="nonzero"/></clipPath></defs><g clip-path="url(#9c75f32348)"><path fill="#ff8210" d="M 322.410156 262.5625 C 300.6875 278.097656 270.605469 281.898438 256.136719 279.90625 C 255.957031 279.875 255.808594 279.785156 255.695312 279.644531 C 255.578125 279.503906 255.523438 279.339844 255.53125 279.15625 C 255.535156 278.972656 255.601562 278.816406 255.726562 278.679688 C 255.851562 278.546875 256.003906 278.46875 256.183594 278.449219 C 285.757812 275.863281 309.734375 256.773438 317.96875 248.492188 C 358.792969 207.433594 358.199219 141.699219 316.703125 99.652344 L 312.539062 95.515625 C 298.117188 81.183594 262.75 92.585938 227.675781 120.804688 C 206.390625 87.640625 171.75 69.640625 135.191406 69.640625 C 64.324219 69.640625 29.226562 129.710938 29.226562 175.601562 C 29.226562 252.878906 97.84375 278.113281 131.285156 276.304688 C 131.476562 276.300781 131.644531 276.359375 131.789062 276.484375 C 131.933594 276.605469 132.019531 276.761719 132.046875 276.949219 C 132.074219 277.136719 132.035156 277.3125 131.929688 277.46875 C 131.824219 277.628906 131.679688 277.734375 131.496094 277.78125 C 96.847656 287.15625 58.507812 273.257812 48.335938 263.410156 C 27.171875 267.777344 14.628906 273.175781 14.628906 279.019531 C 14.628906 293.5625 92.027344 305.355469 187.496094 305.355469 C 282.960938 305.355469 360.359375 293.5625 360.359375 279.019531 C 360.359375 272.792969 346.136719 267.074219 322.410156 262.5625 Z M 86.238281 111.617188 C 82.921875 113.347656 72.703125 121.035156 71.628906 132.941406 C 71.289062 136.667969 71.652344 141.8125 73.636719 145.179688 C 73.789062 145.414062 73.792969 145.652344 73.648438 145.894531 C 73.503906 146.132812 73.292969 146.242188 73.011719 146.21875 C 69.488281 146.15625 65.261719 148.148438 62.355469 149.824219 C 52.011719 155.800781 49.714844 169.972656 49.832031 173.789062 C 49.835938 173.921875 49.773438 174 49.644531 174.023438 C 49.515625 174.046875 49.429688 173.996094 49.386719 173.871094 C 46.917969 168.761719 46.695312 150.742188 61.113281 142.75 C 57.953125 140.382812 56.183594 137.078125 56.007812 135.664062 C 57.328125 135.125 61.066406 135.0625 64.683594 136.664062 C 64.097656 121.019531 80.425781 111.539062 86.09375 111.1875 C 86.21875 111.167969 86.304688 111.21875 86.34375 111.34375 C 86.386719 111.464844 86.351562 111.558594 86.234375 111.617188 Z M 317.664062 123.613281 C 317.726562 123.296875 317.917969 123.105469 318.234375 123.039062 C 318.550781 122.972656 318.800781 123.074219 318.984375 123.34375 C 341.726562 157.242188 339.839844 202.765625 312.960938 234.101562 C 312.828125 234.257812 312.660156 234.351562 312.457031 234.382812 C 312.257812 234.417969 312.066406 234.378906 311.894531 234.273438 C 311.71875 234.164062 311.601562 234.015625 311.535156 233.820312 C 311.472656 233.625 311.480469 233.433594 311.558594 233.242188 C 319.402344 215.015625 321.019531 178.46875 308.484375 162.292969 C 308.410156 162.199219 308.320312 162.125 308.210938 162.078125 C 308.101562 162.027344 307.988281 162.003906 307.871094 162.007812 C 307.75 162.011719 307.640625 162.042969 307.535156 162.097656 C 307.429688 162.15625 307.34375 162.234375 307.277344 162.332031 C 301.433594 170.523438 294.738281 177.648438 288.144531 182.125 C 288.015625 182.214844 287.871094 182.25 287.714844 182.234375 C 287.554688 182.21875 287.421875 182.152344 287.316406 182.035156 C 287.207031 181.917969 287.152344 181.78125 287.144531 181.621094 C 287.136719 181.464844 287.183594 181.324219 287.285156 181.199219 C 303.6875 160.703125 314.351562 140.140625 317.667969 123.613281 Z M 140.542969 84.992188 C 144.371094 85.203125 148.175781 85.648438 151.949219 86.324219 C 155.722656 87 159.445312 87.90625 163.109375 89.039062 C 166.773438 90.167969 170.355469 91.519531 173.855469 93.089844 C 177.355469 94.660156 180.746094 96.4375 184.027344 98.421875 C 187.308594 100.40625 190.460938 102.582031 193.476562 104.949219 C 196.492188 107.320312 199.351562 109.863281 202.054688 112.585938 C 204.761719 115.304688 207.289062 118.179688 209.644531 121.207031 C 211.996094 124.234375 214.15625 127.394531 216.121094 130.6875 C 213.269531 133.300781 210.425781 136.003906 207.613281 138.832031 C 207.289062 139.167969 206.988281 139.503906 206.664062 139.835938 C 191.730469 112.351562 161.726562 94.015625 140.246094 86.414062 C 140.074219 86.351562 139.945312 86.238281 139.855469 86.082031 C 139.769531 85.921875 139.742188 85.753906 139.78125 85.574219 C 139.816406 85.398438 139.90625 85.253906 140.050781 85.144531 C 140.195312 85.03125 140.359375 84.984375 140.539062 84.992188 Z M 251.425781 265.304688 C 246.296875 265.726562 241.167969 265.722656 236.042969 265.289062 C 230.914062 264.855469 225.859375 264 220.875 262.722656 C 215.890625 261.445312 211.046875 259.761719 206.34375 257.675781 C 201.640625 255.585938 197.144531 253.125 192.851562 250.285156 C 192.585938 250.105469 192.484375 249.855469 192.546875 249.539062 C 192.613281 249.21875 192.804688 249.03125 193.121094 248.96875 C 201.828125 247.160156 211.628906 243.320312 221.964844 237.640625 C 222.09375 237.566406 222.234375 237.542969 222.382812 237.566406 C 222.535156 237.589844 222.660156 237.660156 222.757812 237.773438 C 222.859375 237.886719 222.914062 238.015625 222.917969 238.167969 C 222.925781 238.320312 222.882812 238.457031 222.792969 238.578125 C 221.191406 240.738281 219.375 242.699219 217.34375 244.46875 C 217.199219 244.585938 217.113281 244.738281 217.097656 244.925781 C 217.078125 245.109375 217.128906 245.277344 217.246094 245.421875 C 222.394531 251.367188 235.4375 260.179688 251.539062 263.648438 C 251.746094 263.695312 251.910156 263.796875 252.035156 263.964844 C 252.160156 264.132812 252.21875 264.320312 252.203125 264.527344 C 252.1875 264.734375 252.105469 264.914062 251.960938 265.0625 C 251.8125 265.210938 251.632812 265.289062 251.425781 265.304688 Z M 254.164062 197.839844 C 239.808594 211.375 225.066406 221.78125 212.085938 228.03125 C 211.765625 228.175781 211.476562 228.128906 211.21875 227.890625 C 210.960938 227.65625 210.886719 227.371094 211 227.042969 L 228.351562 173.261719 C 228.390625 173.148438 228.355469 173.066406 228.246094 173.019531 C 228.136719 172.972656 228.054688 173 227.996094 173.109375 C 223.378906 182.25 205.769531 217.105469 199.648438 229.230469 C 199.304688 229.917969 198.886719 230.554688 198.390625 231.136719 C 197.894531 231.722656 197.332031 232.242188 196.710938 232.6875 C 196.089844 233.136719 195.421875 233.503906 194.707031 233.789062 C 193.996094 234.074219 193.257812 234.269531 192.5 234.378906 C 187.066406 235.085938 182.449219 234.515625 178.984375 232.472656 C 178.652344 232.273438 178.378906 232.011719 178.160156 231.691406 C 177.941406 231.371094 177.796875 231.023438 177.730469 230.640625 C 177.664062 230.257812 177.675781 229.878906 177.773438 229.503906 C 177.871094 229.128906 178.039062 228.789062 178.28125 228.488281 L 221.921875 174.171875 C 222.003906 174.078125 222.003906 173.984375 221.914062 173.898438 C 221.824219 173.808594 221.734375 173.808594 221.640625 173.890625 L 173.820312 217.058594 C 173.535156 217.320312 173.222656 217.371094 172.871094 217.210938 C 172.523438 217.054688 172.351562 216.78125 172.363281 216.398438 C 172.835938 208.945312 175.914062 199.71875 181.21875 189.613281 C 181.355469 189.480469 181.480469 189.355469 181.613281 189.222656 L 223.023438 168.074219 C 223.125 168.015625 223.152344 167.933594 223.105469 167.828125 C 223.058594 167.722656 222.980469 167.6875 222.871094 167.71875 L 189.269531 178.828125 C 189.105469 178.886719 188.941406 178.890625 188.777344 178.84375 C 188.609375 178.796875 188.472656 178.707031 188.363281 178.574219 C 188.253906 178.4375 188.195312 178.285156 188.183594 178.113281 C 188.171875 177.941406 188.210938 177.78125 188.300781 177.632812 C 194.765625 168.007812 201.960938 158.960938 209.882812 150.496094 C 210.109375 150.25 210.371094 150.054688 210.667969 149.90625 C 210.964844 149.753906 211.28125 149.660156 211.609375 149.625 C 211.941406 149.589844 212.269531 149.613281 212.59375 149.695312 C 212.914062 149.773438 213.214844 149.910156 213.488281 150.097656 L 228.792969 160.644531 C 228.878906 160.695312 228.957031 160.6875 229.027344 160.613281 C 229.097656 160.542969 229.105469 160.464844 229.050781 160.378906 L 218.21875 145.089844 C 218.023438 144.820312 217.882812 144.523438 217.796875 144.199219 C 217.710938 143.878906 217.683594 143.554688 217.714844 143.222656 C 217.746094 142.890625 217.832031 142.574219 217.976562 142.273438 C 218.121094 141.976562 218.3125 141.710938 218.554688 141.480469 C 226.882812 133.464844 235.796875 126.167969 245.296875 119.589844 C 245.445312 119.496094 245.601562 119.449219 245.777344 119.457031 C 245.949219 119.464844 246.105469 119.523438 246.242188 119.628906 C 246.378906 119.734375 246.472656 119.871094 246.523438 120.039062 C 246.574219 120.203125 246.570312 120.367188 246.515625 120.53125 L 236.015625 154.328125 C 235.96875 154.449219 236.003906 154.53125 236.121094 154.582031 C 236.238281 154.632812 236.324219 154.597656 236.375 154.484375 L 256.765625 112.695312 C 256.898438 112.558594 257.019531 112.429688 257.148438 112.292969 C 268.058594 106.308594 277.96875 102.984375 285.75 102.847656 C 286.109375 102.863281 286.359375 103.035156 286.496094 103.367188 C 286.636719 103.699219 286.585938 104 286.339844 104.261719 L 242.175781 152.996094 C 242.09375 153.089844 242.097656 153.179688 242.183594 153.265625 C 242.269531 153.351562 242.359375 153.355469 242.453125 153.277344 L 295.964844 108.648438 C 296.261719 108.398438 296.597656 108.222656 296.972656 108.117188 C 297.34375 108.015625 297.722656 107.992188 298.105469 108.054688 C 298.488281 108.113281 298.839844 108.253906 299.164062 108.464844 C 299.488281 108.679688 299.753906 108.949219 299.960938 109.277344 C 302.0625 112.695312 302.71875 117.28125 302.117188 122.710938 C 302.019531 123.480469 301.835938 124.230469 301.558594 124.953125 C 301.28125 125.679688 300.921875 126.359375 300.476562 126.996094 C 300.035156 127.636719 299.519531 128.210938 298.9375 128.722656 C 298.355469 129.234375 297.71875 129.671875 297.027344 130.027344 L 241.511719 159.355469 C 241.40625 159.410156 241.378906 159.492188 241.425781 159.601562 C 241.472656 159.714844 241.550781 159.75 241.664062 159.710938 L 295.078125 141.394531 C 295.414062 141.277344 295.703125 141.34375 295.949219 141.605469 C 296.191406 141.863281 296.246094 142.15625 296.105469 142.484375 C 290.09375 155.566406 279.960938 170.484375 266.695312 185.078125 C 266.546875 185.242188 266.375 185.375 266.179688 185.476562 C 265.984375 185.578125 265.777344 185.640625 265.5625 185.671875 C 265.34375 185.699219 265.128906 185.691406 264.914062 185.644531 C 264.699219 185.59375 264.496094 185.511719 264.3125 185.394531 L 236.558594 167.5 C 236.386719 167.390625 236.234375 167.40625 236.089844 167.550781 C 235.949219 167.695312 235.9375 167.851562 236.050781 168.019531 L 254.4375 195.445312 C 254.558594 195.628906 254.648438 195.828125 254.699219 196.042969 C 254.75 196.257812 254.761719 196.472656 254.738281 196.691406 C 254.714844 196.910156 254.652344 197.121094 254.554688 197.316406 C 254.457031 197.515625 254.324219 197.6875 254.164062 197.839844 Z M 254.164062 197.839844 " fill-opacity="1" fill-rule="evenodd"/></g></svg>